<mxfile host="app.diagrams.net" agent="Mozilla/5.0 (Windows NT 10.0; Win64; x64) AppleWebKit/537.36 (KHTML, like Gecko) Chrome/136.0.0.0 Safari/537.36 Edg/136.0.0.0" version="27.0.6">
  <diagram name="Page-1" id="DbNlGTwUSIhi4jzcIrZE">
    <mxGraphModel dx="1863" dy="568" grid="1" gridSize="10" guides="1" tooltips="1" connect="1" arrows="1" fold="1" page="1" pageScale="1" pageWidth="827" pageHeight="1169" math="0" shadow="0">
      <root>
        <mxCell id="0" />
        <mxCell id="1" parent="0" />
        <mxCell id="oskmTqdVWgGtZdyMERT5-16" style="edgeStyle=orthogonalEdgeStyle;rounded=0;orthogonalLoop=1;jettySize=auto;html=1;endArrow=open;endFill=0;dashed=1;" edge="1" parent="1" source="oskmTqdVWgGtZdyMERT5-1" target="oskmTqdVWgGtZdyMERT5-5">
          <mxGeometry relative="1" as="geometry" />
        </mxCell>
        <mxCell id="oskmTqdVWgGtZdyMERT5-1" value="TestFileParserFactory" style="swimlane;fontStyle=1;align=center;verticalAlign=middle;childLayout=stackLayout;horizontal=1;startSize=29;horizontalStack=0;resizeParent=1;resizeParentMax=0;resizeLast=0;collapsible=0;marginBottom=0;html=1;whiteSpace=wrap;" vertex="1" parent="1">
          <mxGeometry x="370" y="180" width="230" height="54" as="geometry" />
        </mxCell>
        <mxCell id="oskmTqdVWgGtZdyMERT5-3" value="&lt;span style=&quot;font-weight: 700; text-align: center;&quot;&gt;IFileParser Get&lt;/span&gt;Parser(string filePath)" style="text;html=1;strokeColor=none;fillColor=none;align=left;verticalAlign=middle;spacingLeft=4;spacingRight=4;overflow=hidden;rotatable=0;points=[[0,0.5],[1,0.5]];portConstraint=eastwest;whiteSpace=wrap;" vertex="1" parent="oskmTqdVWgGtZdyMERT5-1">
          <mxGeometry y="29" width="230" height="25" as="geometry" />
        </mxCell>
        <mxCell id="oskmTqdVWgGtZdyMERT5-5" value="ITestFileParser" style="swimlane;fontStyle=1;align=center;verticalAlign=middle;childLayout=stackLayout;horizontal=1;startSize=29;horizontalStack=0;resizeParent=1;resizeParentMax=0;resizeLast=0;collapsible=0;marginBottom=0;html=1;whiteSpace=wrap;" vertex="1" parent="1">
          <mxGeometry x="30" y="180" width="140" height="54" as="geometry" />
        </mxCell>
        <mxCell id="oskmTqdVWgGtZdyMERT5-7" value="ITest Build()" style="text;html=1;strokeColor=none;fillColor=none;align=left;verticalAlign=middle;spacingLeft=4;spacingRight=4;overflow=hidden;rotatable=0;points=[[0,0.5],[1,0.5]];portConstraint=eastwest;whiteSpace=wrap;" vertex="1" parent="oskmTqdVWgGtZdyMERT5-5">
          <mxGeometry y="29" width="140" height="25" as="geometry" />
        </mxCell>
        <mxCell id="oskmTqdVWgGtZdyMERT5-14" style="edgeStyle=orthogonalEdgeStyle;rounded=0;orthogonalLoop=1;jettySize=auto;html=1;endArrow=block;endFill=0;" edge="1" parent="1" source="oskmTqdVWgGtZdyMERT5-8" target="oskmTqdVWgGtZdyMERT5-5">
          <mxGeometry relative="1" as="geometry" />
        </mxCell>
        <mxCell id="oskmTqdVWgGtZdyMERT5-8" value="RTAFileParser" style="swimlane;fontStyle=1;align=center;verticalAlign=middle;childLayout=stackLayout;horizontal=1;startSize=29;horizontalStack=0;resizeParent=1;resizeParentMax=0;resizeLast=0;collapsible=0;marginBottom=0;html=1;whiteSpace=wrap;" vertex="1" parent="1">
          <mxGeometry x="30" y="320" width="140" height="54" as="geometry" />
        </mxCell>
        <mxCell id="oskmTqdVWgGtZdyMERT5-15" style="edgeStyle=orthogonalEdgeStyle;rounded=0;orthogonalLoop=1;jettySize=auto;html=1;endArrow=block;endFill=0;" edge="1" parent="1" source="oskmTqdVWgGtZdyMERT5-11" target="oskmTqdVWgGtZdyMERT5-5">
          <mxGeometry relative="1" as="geometry">
            <Array as="points">
              <mxPoint x="260" y="280" />
              <mxPoint x="100" y="280" />
            </Array>
          </mxGeometry>
        </mxCell>
        <mxCell id="oskmTqdVWgGtZdyMERT5-11" value="XK10FileParser" style="swimlane;fontStyle=1;align=center;verticalAlign=middle;childLayout=stackLayout;horizontal=1;startSize=29;horizontalStack=0;resizeParent=1;resizeParentMax=0;resizeLast=0;collapsible=0;marginBottom=0;html=1;whiteSpace=wrap;" vertex="1" parent="1">
          <mxGeometry x="190" y="320" width="140" height="54" as="geometry" />
        </mxCell>
        <mxCell id="oskmTqdVWgGtZdyMERT5-13" style="edgeStyle=orthogonalEdgeStyle;rounded=0;orthogonalLoop=1;jettySize=auto;html=1;endArrow=block;endFill=0;" edge="1" parent="1" source="oskmTqdVWgGtZdyMERT5-12" target="oskmTqdVWgGtZdyMERT5-5">
          <mxGeometry relative="1" as="geometry">
            <Array as="points">
              <mxPoint x="-80" y="280" />
              <mxPoint x="100" y="280" />
            </Array>
          </mxGeometry>
        </mxCell>
        <mxCell id="oskmTqdVWgGtZdyMERT5-12" value="BallbarFileParser" style="swimlane;fontStyle=1;align=center;verticalAlign=middle;childLayout=stackLayout;horizontal=1;startSize=29;horizontalStack=0;resizeParent=1;resizeParentMax=0;resizeLast=0;collapsible=0;marginBottom=0;html=1;whiteSpace=wrap;" vertex="1" parent="1">
          <mxGeometry x="-150" y="320" width="140" height="54" as="geometry" />
        </mxCell>
      </root>
    </mxGraphModel>
  </diagram>
</mxfile>
